<?xml version="1.0" encoding="UTF-8" standalone="no"?>
<svg width="64px" height="64px" viewBox="0 0 64 64" version="1.1" xmlns="http://www.w3.org/2000/svg" xmlns:xlink="http://www.w3.org/1999/xlink" xmlns:sketch="http://www.bohemiancoding.com/sketch/ns">
    <!-- Generator: Sketch 3.0.3 (7891) - http://www.bohemiancoding.com/sketch -->
    <title>Button-circle-arrow-add</title>
    <desc>Created with Sketch.</desc>
    <defs></defs>
    <g id="Page-1" stroke="none" stroke-width="1" fill="none" fill-rule="evenodd" sketch:type="MSPage">
        <g id="Button-circle-arrow-add" sketch:type="MSLayerGroup" transform="translate(1.000000, 1.000000)" stroke="#6B6C6E" stroke-width="2">
            <circle id="Oval" sketch:type="MSShapeGroup" cx="31" cy="31" r="31"></circle>
            <path d="M31,57 C16.6,57 5,45.4 5,31" id="Shape" sketch:type="MSShapeGroup"></path>
            <path d="M31,5 C45.4,5 57,16.6 57,31" id="Shape" sketch:type="MSShapeGroup"></path>
            <path d="M34,25.9 L34,20.6 C34,20.2 33.7,19.9 33.3,19.9 L17.8,30 C17.4,30.3 17.1,31.1 17.1,31.4 L17.1,31.4 C17.1,31.4 17.4,32.6 17.8,32.9 L33.3,43.1 C33.7,43.1 34,42.8 34,42.4 L34,37.1" id="Shape" sketch:type="MSShapeGroup"></path>
            <path d="M31.1,37.1 L44,37.1" id="Shape" sketch:type="MSShapeGroup"></path>
            <path d="M31.1,26.1 L44,26.1" id="Shape" sketch:type="MSShapeGroup"></path>
        </g>
    </g>
</svg>